<?xml version="1.0" encoding="UTF-8"?>
<svg id="Layer_1" data-name="Layer 1" xmlns="http://www.w3.org/2000/svg" viewBox="0 0 595.28 595.28">
  <defs>
    <style>
      .cls-1 {
        fill-rule: evenodd;
      }

      .cls-1, .cls-2 {
        fill: #c99959;
        stroke-width: 0px;
      }
    </style>
  </defs>
  <path class="cls-2" d="m113.27,140.72h178.08v365.91h-109.12v-12.57h96.55V153.29H120.07l43.84,81.06h10.14l-.06,6.05c-.17,17.61-7.48,33.58-19.14,45.13-11.68,11.57-27.71,18.73-45.31,18.73s-33.64-7.17-45.31-18.73c-11.66-11.55-18.97-27.52-19.14-45.13l-.06-6.05h10.14l50.64-93.64h7.46Zm48.17,106.97H57.64c1.74,11.37,7.17,21.58,15.02,29.36,9.48,9.39,22.53,15.21,36.87,15.21s27.39-5.82,36.88-15.21c7.86-7.78,13.29-17.99,15.02-29.36h0Zm-92-13.33h80.21l-20.11-37.18-20-36.98-40.11,74.16h0Z"/>
  <path class="cls-2" d="m482,140.72h-178.08v353.34h-36.55V198.68c0-9.48-3.87-18.1-10.11-24.34-6.24-6.24-14.86-10.12-24.34-10.12s-18.1,3.88-24.34,10.12c-6.24,6.24-10.11,14.86-10.11,24.34s3.87,18.1,10.11,24.34c6.24,6.24,14.86,10.11,24.34,10.11,1.7,0,3.36-.13,4.99-.36,2.49-.37,4.31-2.47,4.31-4.99v-2.52c0-1.53-.61-2.85-1.77-3.84-1.16-.99-2.56-1.38-4.07-1.14-1.12.18-2.28.28-3.46.28-6.01,0-11.48-2.46-15.45-6.43-3.97-3.97-6.43-9.44-6.43-15.45s2.46-11.48,6.43-15.45c3.97-3.97,9.44-6.43,15.45-6.43s11.48,2.46,15.45,6.43c3.97,3.97,6.43,9.44,6.43,15.45h0v295.38h-76.92c-3.21,0-5.83,2.27-5.83,5.04v2.49c0,2.78,2.62,5.04,5.83,5.04h239.52c3.21,0,5.83-2.27,5.83-5.04v-2.49c0-2.78-2.62-5.04-5.83-5.04h-76.92V198.68h0c0-6.01,2.46-11.48,6.43-15.45,3.97-3.97,9.44-6.43,15.44-6.43s11.48,2.46,15.45,6.43c3.97,3.97,6.43,9.44,6.43,15.45s-2.46,11.48-6.43,15.45c-3.97,3.97-9.44,6.43-15.45,6.43-1.18,0-2.33-.09-3.46-.28-1.51-.24-2.91.15-4.07,1.14-1.17.99-1.77,2.31-1.77,3.84v2.52c0,2.52,1.82,4.62,4.31,4.99,1.63.24,3.3.36,4.99.36,9.48,0,18.1-3.87,24.34-10.11,6.24-6.24,10.11-14.86,10.11-24.34s-3.87-18.1-10.11-24.34c-6.24-6.24-14.86-10.12-24.34-10.12s-18.1,3.88-24.34,10.12c-6.24,6.24-10.11,14.86-10.11,24.34v295.38h-11.4V153.29h158.71l-43.84,81.06h-10.14l.06,6.05c.17,17.61,7.48,33.58,19.14,45.13,11.67,11.56,27.71,18.73,45.31,18.73s33.64-7.17,45.31-18.73c11.66-11.55,18.97-27.52,19.14-45.13l.06-6.05h-10.14l-50.64-93.64h-7.46Zm-48.16,106.97h103.79c-1.74,11.37-7.17,21.58-15.02,29.36-9.49,9.39-22.53,15.21-36.87,15.21s-27.39-5.82-36.88-15.21c-7.85-7.78-13.28-17.99-15.02-29.36h0Zm92-13.33h-80.21l20.11-37.18,20-36.98,40.11,74.16h0Z"/>
  <path class="cls-2" d="m193.95,117.36h207.37c2.78,0,5.04,2.27,5.04,5.04v2.49c0,2.78-2.27,5.04-5.04,5.04h-207.37c-2.78,0-5.04-2.27-5.04-5.04v-2.49c0-2.78,2.27-5.04,5.04-5.04h0Z"/>
  <path class="cls-2" d="m133.05,511.59h329.17c2.78,0,5.04,2.27,5.04,5.04v2.49c0,2.78-2.27,5.04-5.04,5.04H133.05c-2.78,0-5.04-2.27-5.04-5.04v-2.49c0-2.78,2.27-5.04,5.04-5.04h0Z"/>
  <path class="cls-1" d="m418.06,486.15h-10.92v-136.57c-2.47,17.91-4.95,35.9-7.41,53.94-2.47,18.09-4.94,36.28-7.41,54.51-3.33-.06-6.66-.14-9.99-.2-2.48-18.65-4.97-37.38-7.45-56.15-2.49-18.85-4.97-37.8-7.45-56.8v141.27h-10.84v-199.03c1.13.18,2.27.34,3.41.5,2.48.36,4.96.72,7.43,1.07,1.08.16,2.16.32,3.24.48,2.78,21.81,5.56,43.53,8.34,65.18,2.77,21.53,5.57,42.99,8.35,64.37,2.77-21,5.54-41.92,8.31-62.75,2.76-20.74,5.54-41.4,8.32-61.98,1.05.16,2.1.3,3.15.46,2.5.36,5,.72,7.51,1.1,1.14.16,2.27.32,3.41.48v190.13h0Z"/>
  <path class="cls-1" d="m238.69,486.15h-10.92v-140.67c-2.47,18.89-4.94,37.76-7.41,56.5-2.47,18.67-4.94,37.3-7.41,55.85-3.33.06-6.66.14-9.99.2-2.48-18.33-4.97-36.62-7.45-54.79-2.48-18.13-4.97-36.22-7.45-54.24v137.15h-10.84v-190.13c1.13-.18,2.27-.34,3.41-.5,2.48-.36,4.96-.72,7.43-1.07,1.08-.16,2.16-.32,3.24-.48,2.78,20.58,5.57,41.24,8.34,61.98,2.78,20.84,5.57,41.76,8.36,62.77,2.77-21.38,5.55-42.85,8.31-64.38,2.77-21.63,5.55-43.37,8.32-65.18,1.05-.14,2.1-.3,3.15-.46,2.5-.36,5-.72,7.51-1.09,1.14-.16,2.27-.32,3.41-.48v199.03h0Z"/>
</svg>